<svg width="20" height="20" viewBox="0 0 20 20" fill="none" xmlns="http://www.w3.org/2000/svg">
<path d="M8.25065 3.53331C8.82426 3.39905 9.41154 3.33193 10.0007 3.33331C15.834 3.33331 19.1673 9.99998 19.1673 9.99998C18.6615 10.9463 18.0582 11.8373 17.3673 12.6583M11.7673 11.7666C11.5384 12.0123 11.2624 12.2093 10.9558 12.3459C10.6491 12.4826 10.3181 12.556 9.98239 12.5619C9.64672 12.5679 9.31329 12.5061 9.00199 12.3804C8.6907 12.2547 8.40792 12.0675 8.17052 11.8301C7.93313 11.5927 7.74598 11.3099 7.62024 10.9986C7.4945 10.6873 7.43276 10.3539 7.43868 10.0182C7.4446 9.68256 7.51807 9.35152 7.65471 9.04485C7.79135 8.73819 7.98836 8.46219 8.23398 8.23331M0.833984 0.833313L19.1673 19.1666M14.9507 14.95C13.5261 16.0358 11.7916 16.6374 10.0007 16.6666C4.16732 16.6666 0.833984 9.99998 0.833984 9.99998C1.87056 8.06823 3.30826 6.38049 5.05065 5.04998L14.9507 14.95Z" stroke="#7E7E8F" stroke-width="1.66667" stroke-linecap="round" stroke-linejoin="round"/>
</svg>
